<mxfile host="65bd71144e">
    <diagram name="Page-1" id="22Prqh3fi_F4Hxmr0jNp">
        <mxGraphModel dx="1179" dy="596" grid="1" gridSize="10" guides="1" tooltips="1" connect="1" arrows="1" fold="1" page="1" pageScale="1" pageWidth="850" pageHeight="1100" math="0" shadow="0">
            <root>
                <mxCell id="0"/>
                <mxCell id="1" parent="0"/>
                <mxCell id="8ssx67lCZb9HP1evajl2-1" value="" style="points=[];aspect=fixed;html=1;align=center;shadow=0;dashed=0;image;image=img/lib/allied_telesis/computer_and_terminals/Laptop.svg;" parent="1" vertex="1">
                    <mxGeometry x="50" y="234.3" width="42" height="42.599999999999994" as="geometry"/>
                </mxCell>
                <mxCell id="8ssx67lCZb9HP1evajl2-2" value="" style="points=[];aspect=fixed;html=1;align=center;shadow=0;dashed=0;image;image=img/lib/allied_telesis/computer_and_terminals/Server_Desktop.svg;" parent="1" vertex="1">
                    <mxGeometry x="210" y="228.6" width="42.599999999999994" height="54" as="geometry"/>
                </mxCell>
                <mxCell id="8ssx67lCZb9HP1evajl2-4" value="" style="verticalLabelPosition=bottom;sketch=0;aspect=fixed;html=1;verticalAlign=top;strokeColor=none;align=center;outlineConnect=0;shape=mxgraph.citrix.router;" parent="1" vertex="1">
                    <mxGeometry x="360" y="237.35" width="55" height="36.5" as="geometry"/>
                </mxCell>
                <mxCell id="8ssx67lCZb9HP1evajl2-5" value="" style="sketch=0;aspect=fixed;pointerEvents=1;shadow=0;dashed=0;html=1;strokeColor=none;labelPosition=center;verticalLabelPosition=bottom;verticalAlign=top;align=center;fillColor=#00188D;shape=mxgraph.mscae.enterprise.windows_server" parent="1" vertex="1">
                    <mxGeometry x="700" y="230.6" width="39" height="50" as="geometry"/>
                </mxCell>
                <mxCell id="8ssx67lCZb9HP1evajl2-6" value="" style="points=[];aspect=fixed;html=1;align=center;shadow=0;dashed=0;image;image=img/lib/allied_telesis/computer_and_terminals/Server_Desktop.svg;" parent="1" vertex="1">
                    <mxGeometry x="530" y="228.6" width="42.599999999999994" height="54" as="geometry"/>
                </mxCell>
                <mxCell id="8ssx67lCZb9HP1evajl2-12" value="" style="endArrow=classic;startArrow=classic;html=1;rounded=0;" parent="1" edge="1">
                    <mxGeometry width="50" height="50" relative="1" as="geometry">
                        <mxPoint x="100" y="260" as="sourcePoint"/>
                        <mxPoint x="200" y="260" as="targetPoint"/>
                    </mxGeometry>
                </mxCell>
                <mxCell id="8ssx67lCZb9HP1evajl2-13" value="" style="endArrow=classic;startArrow=classic;html=1;rounded=0;" parent="1" edge="1">
                    <mxGeometry width="50" height="50" relative="1" as="geometry">
                        <mxPoint x="254.6" y="260" as="sourcePoint"/>
                        <mxPoint x="354.6" y="260" as="targetPoint"/>
                    </mxGeometry>
                </mxCell>
                <mxCell id="8ssx67lCZb9HP1evajl2-14" value="" style="endArrow=classic;startArrow=classic;html=1;rounded=0;" parent="1" edge="1">
                    <mxGeometry width="50" height="50" relative="1" as="geometry">
                        <mxPoint x="419.9999999999999" y="260" as="sourcePoint"/>
                        <mxPoint x="519.9999999999999" y="260" as="targetPoint"/>
                    </mxGeometry>
                </mxCell>
                <mxCell id="8ssx67lCZb9HP1evajl2-15" value="" style="endArrow=classic;startArrow=classic;html=1;rounded=0;" parent="1" edge="1">
                    <mxGeometry width="50" height="50" relative="1" as="geometry">
                        <mxPoint x="589.9999999999999" y="260" as="sourcePoint"/>
                        <mxPoint x="689.9999999999999" y="260" as="targetPoint"/>
                    </mxGeometry>
                </mxCell>
                <mxCell id="2" value="ssh" style="shape=note;whiteSpace=wrap;html=1;backgroundOutline=1;fontColor=#000000;darkOpacity=0.05;fillColor=none;strokeColor=none;fillStyle=solid;direction=west;gradientDirection=north;gradientColor=#FFF2A1;shadow=1;size=20;pointerEvents=1;" vertex="1" parent="1">
                    <mxGeometry x="230" y="234.29999999999998" width="140" height="30" as="geometry"/>
                </mxCell>
                <mxCell id="3" value="mtls" style="shape=note;whiteSpace=wrap;html=1;backgroundOutline=1;fontColor=#000000;darkOpacity=0.05;fillColor=none;strokeColor=none;fillStyle=solid;direction=west;gradientDirection=north;gradientColor=#FFF2A1;shadow=1;size=20;pointerEvents=1;" vertex="1" parent="1">
                    <mxGeometry x="400" y="234.29999999999998" width="140" height="30" as="geometry"/>
                </mxCell>
                <mxCell id="4" value="wg" style="shape=note;whiteSpace=wrap;html=1;backgroundOutline=1;fontColor=#000000;darkOpacity=0.05;fillColor=none;strokeColor=none;fillStyle=solid;direction=west;gradientDirection=north;gradientColor=#FFF2A1;shadow=1;size=20;pointerEvents=1;" vertex="1" parent="1">
                    <mxGeometry x="572.6" y="234.29999999999998" width="140" height="30" as="geometry"/>
                </mxCell>
            </root>
        </mxGraphModel>
    </diagram>
</mxfile>